<svg baseProfile="tiny" xmlns="http://www.w3.org/2000/svg" width="200" height="200" xml:space="preserve"><path fill="#F8B133" d="M2.094 79.433h8.233v-7.762c0-.771.043-1.532.139-2.283L2.094 79.433z"/><path fill="#FFF" d="M29.591 52.408a19.214 19.214 0 0 1 13.625 5.639 19.218 19.218 0 0 1 5.639 13.625v21.183c0 .579.472 1.04 1.051 1.04s1.04-.461 1.04-1.04c0-17.913 7.267-34.133 19.006-45.871 11.738-11.739 27.958-19.007 45.87-19.007h51.895v16.959c0 26.103-21.162 47.265-47.273 47.265-.686 0-1.254.557-1.266 1.243v.042c0 .697.568 1.255 1.266 1.255h77.463l-54.727 54.727a77.007 77.007 0 0 1-54.446 22.556c-21.645 0-41.251-8.781-55.444-22.964-14.183-14.193-22.962-33.802-22.962-55.444V71.671c0-.771.043-1.532.139-2.283 1.125-9.562 9.262-16.98 19.124-16.98zm-4.116 20.014a2.945 2.945 0 0 0 2.948-2.937 2.946 2.946 0 0 0-2.948-2.949 2.945 2.945 0 0 0-2.938 2.949 2.941 2.941 0 0 0 2.938 2.937z"/><path fill="#1D1D1B" d="M25.475 66.537a2.945 2.945 0 0 0-2.938 2.949 2.942 2.942 0 0 0 2.938 2.937 2.945 2.945 0 0 0 2.948-2.937 2.947 2.947 0 0 0-2.948-2.949z"/></svg>